#N canvas 323 383 786 517 10;
#X obj 309 329 dac~;
#X obj 309 287 osc~ 440;
#X floatatom 298 192 5 0 0 0 - - -, f 5;
#X obj 301 234 mtof;
#X floatatom 397 246 5 0 0 0 - - -, f 5;
#X obj 11 92 table sticky 16;
#X msg 557 189 \; sticky 0 12 3 5 7 1;
#X obj 132 71 tabread sticky;
#X floatatom 137 130 5 0 0 0 - - -, f 5;
#X floatatom 132 31 5 0 0 0 - - -, f 5;
#X obj 251 191 + 48;
#X connect 1 0 0 0;
#X connect 1 0 0 1;
#X connect 3 0 1 0;
#X connect 3 0 4 0;
#X connect 7 0 8 0;
#X connect 8 0 10 0;
#X connect 9 0 7 0;
#X connect 10 0 3 0;
